<svg width="17" height="19" viewBox="0 0 17 19" fill="none" xmlns="http://www.w3.org/2000/svg">
<path id="Vector" d="M12.1081 12.8914L13.0815 11.8656C13.1291 11.814 13.1863 11.7726 13.2496 11.7439C13.3129 11.7153 13.3811 11.6999 13.4502 11.6986C13.5193 11.6974 13.5879 11.7103 13.6522 11.7367C13.7164 11.7631 13.7749 11.8024 13.8243 11.8523C13.8737 11.9022 13.913 11.9618 13.9399 12.0275C13.9668 12.0932 13.9807 12.1638 13.981 12.2351C13.9812 12.3065 13.9677 12.3772 13.9413 12.4431C13.9148 12.509 13.876 12.5688 13.8269 12.6191L12.8385 13.6612L13.8269 14.7037C13.877 14.7538 13.9169 14.8136 13.9442 14.8798C13.9715 14.9461 13.9857 15.0172 13.9859 15.0892C13.9861 15.1612 13.9724 15.2324 13.9454 15.2988C13.9185 15.3652 13.879 15.4253 13.8291 15.4756C13.7793 15.526 13.7202 15.5655 13.6553 15.5919C13.5905 15.6182 13.5211 15.6309 13.4514 15.6291C13.3817 15.6274 13.3131 15.6112 13.2495 15.5816C13.186 15.552 13.1288 15.5095 13.0815 15.4568L12.1081 14.431L11.1348 15.4568C11.0871 15.5084 11.0299 15.5498 10.9667 15.5785C10.9034 15.6071 10.8352 15.6225 10.7661 15.6238C10.6969 15.625 10.6283 15.6121 10.5641 15.5857C10.4998 15.5593 10.4413 15.52 10.3919 15.4701C10.3426 15.4202 10.3033 15.3606 10.2764 15.2949C10.2495 15.2292 10.2355 15.1586 10.2352 15.0873C10.235 15.0159 10.2485 14.9452 10.2749 14.8793C10.3014 14.8134 10.3403 14.7536 10.3893 14.7033L11.3777 13.6612L10.3893 12.6187C10.3392 12.5686 10.2993 12.5087 10.272 12.4425C10.2447 12.3763 10.2305 12.3051 10.2303 12.2332C10.2301 12.1612 10.2439 12.09 10.2708 12.0236C10.2977 11.9572 10.3373 11.8971 10.3871 11.8467C10.4369 11.7964 10.496 11.7569 10.5609 11.7305C10.6258 11.7042 10.6951 11.6915 10.7648 11.6933C10.8345 11.695 10.9031 11.7112 10.9667 11.7408C11.0302 11.7704 11.0874 11.8128 11.1348 11.8656L12.1081 12.8914ZM6.82066 16.0306C6.98671 16.0306 7.14595 16.0987 7.26337 16.2198C7.38078 16.341 7.44674 16.5054 7.44674 16.6768C7.44674 16.8482 7.38078 17.0125 7.26337 17.1337C7.14595 17.2549 6.98671 17.323 6.82066 17.323H2.71692C2.36064 17.323 2.00785 17.2505 1.67869 17.1098C1.34954 16.9691 1.05046 16.7628 0.798529 16.5028C0.546603 16.2428 0.346764 15.9341 0.210422 15.5944C0.0740804 15.2546 0.00390625 14.8905 0.00390625 14.5228V2.89125C0.00390625 2.14859 0.289741 1.43636 0.798529 0.91122C1.30732 0.386083 1.99738 0.0910645 2.71692 0.0910645H11.482C12.2016 0.0910645 12.8916 0.386083 13.4004 0.91122C13.9092 1.43636 14.195 2.14859 14.195 2.89125V7.81441C14.195 7.98577 14.129 8.1501 14.0116 8.27127C13.8942 8.39243 13.735 8.46049 13.569 8.46049C13.4029 8.46049 13.2437 8.39243 13.1263 8.27127C13.0089 8.1501 12.9429 7.98577 12.9429 7.81441V2.89125C12.9429 2.69324 12.9051 2.49718 12.8317 2.31424C12.7583 2.13131 12.6507 1.96509 12.515 1.82508C12.3794 1.68507 12.2183 1.57401 12.0411 1.49823C11.8638 1.42246 11.6739 1.38346 11.482 1.38346H2.71692C2.52508 1.38346 2.33511 1.42246 2.15787 1.49823C1.98064 1.57401 1.81959 1.68507 1.68394 1.82508C1.54829 1.96509 1.44068 2.13131 1.36727 2.31424C1.29385 2.49718 1.25607 2.69324 1.25607 2.89125V14.5228C1.25607 14.7208 1.29385 14.9169 1.36727 15.0998C1.44068 15.2827 1.54829 15.4489 1.68394 15.589C1.81959 15.729 1.98064 15.84 2.15787 15.9158C2.33511 15.9916 2.52508 16.0306 2.71692 16.0306H6.82066ZM3.55169 5.25978C3.38566 5.25975 3.22644 5.19165 3.10905 5.07047C2.99166 4.94929 2.92572 4.78494 2.92572 4.61358C2.92572 4.44222 2.99166 4.27787 3.10905 4.15669C3.22644 4.03551 3.38566 3.96741 3.55169 3.96738H10.2299C10.3959 3.96741 10.5551 4.03551 10.6725 4.15669C10.7899 4.27787 10.8558 4.44222 10.8558 4.61358C10.8558 4.78494 10.7899 4.94929 10.6725 5.07047C10.5551 5.19165 10.3959 5.25975 10.2299 5.25978H3.55169ZM3.55169 8.70616C3.38564 8.70616 3.2264 8.63808 3.10899 8.51689C2.99157 8.39571 2.92561 8.23134 2.92561 8.05996C2.92561 7.88858 2.99157 7.72422 3.10899 7.60303C3.2264 7.48185 3.38564 7.41377 3.55169 7.41377H10.2299C10.3959 7.41377 10.5552 7.48185 10.6726 7.60303C10.79 7.72422 10.856 7.88858 10.856 8.05996C10.856 8.23134 10.79 8.39571 10.6726 8.51689C10.5552 8.63808 10.3959 8.70616 10.2299 8.70616H3.55169ZM3.55169 12.1517C3.46946 12.1517 3.38804 12.135 3.31207 12.1025C3.2361 12.0701 3.16707 12.0225 3.10892 11.9625C3.05077 11.9024 3.00464 11.8312 2.97317 11.7528C2.9417 11.6744 2.92551 11.5904 2.92551 11.5055C2.92551 11.4206 2.9417 11.3366 2.97317 11.2582C3.00464 11.1798 3.05077 11.1085 3.10892 11.0485C3.16707 10.9885 3.2361 10.9409 3.31207 10.9084C3.38804 10.876 3.46946 10.8593 3.55169 10.8593H6.05601C6.22204 10.8593 6.38126 10.9274 6.49865 11.0486C6.61604 11.1698 6.68198 11.3341 6.68198 11.5055C6.68198 11.6768 6.61604 11.8412 6.49865 11.9624C6.38126 12.0836 6.22204 12.1517 6.05601 12.1517H3.55169ZM11.8994 18.2729C9.43183 18.2729 7.4313 16.2081 7.4313 13.6612C7.4313 11.1143 9.43183 9.0495 11.8994 9.0495C14.367 9.0495 16.3675 11.1143 16.3675 13.6612C16.3675 16.2081 14.367 18.2729 11.8994 18.2729ZM11.8994 17.1959C12.8077 17.1959 13.6788 16.8235 14.321 16.1606C14.9633 15.4977 15.3241 14.5987 15.3241 13.6612C15.3241 12.7237 14.9633 11.8247 14.321 11.1618C13.6788 10.4989 12.8077 10.1265 11.8994 10.1265C10.9911 10.1265 10.1201 10.4989 9.47782 11.1618C8.83558 11.8247 8.47476 12.7237 8.47476 13.6612C8.47476 14.5987 8.83558 15.4977 9.47782 16.1606C10.1201 16.8235 10.9911 17.1959 11.8994 17.1959Z" fill="black"/>
</svg>
