<svg width="65" height="64" viewBox="0 0 65 64" fill="none" xmlns="http://www.w3.org/2000/svg">
<g id="account 1">
<path id="Vector" d="M42.5715 33.8933C45.1859 31.8364 47.0941 29.0158 48.0308 25.8238C48.9674 22.6319 48.8859 19.2274 47.7976 16.0839C46.7092 12.9404 44.6682 10.2144 41.9583 8.28493C39.2485 6.3555 36.0047 5.31866 32.6782 5.31866C29.3516 5.31866 26.1078 6.3555 23.398 8.28493C20.6881 10.2144 18.6471 12.9404 17.5587 16.0839C16.4704 19.2274 16.3889 22.6319 17.3255 25.8238C18.2622 29.0158 20.1704 31.8364 22.7848 33.8933C18.305 35.6881 14.3963 38.6649 11.4752 42.5064C8.55415 46.3479 6.73032 50.9101 6.19815 55.7066C6.15963 56.0568 6.19046 56.4112 6.28889 56.7495C6.38731 57.0877 6.5514 57.4033 6.77178 57.6782C7.21687 58.2333 7.86424 58.5889 8.57149 58.6667C9.27873 58.7444 9.98791 58.5381 10.543 58.093C11.0981 57.6479 11.4537 57.0006 11.5315 56.2933C12.117 51.0805 14.6026 46.2662 18.5134 42.7701C22.4242 39.274 27.4859 37.3414 32.7315 37.3414C37.9771 37.3414 43.0388 39.274 46.9496 42.7701C50.8603 46.2662 53.3459 51.0805 53.9315 56.2933C54.004 56.9486 54.3166 57.5537 54.8091 57.992C55.3016 58.4303 55.9389 58.6707 56.5981 58.6667H56.8915C57.5905 58.5862 58.2294 58.2328 58.669 57.6833C59.1085 57.1339 59.3131 56.433 59.2381 55.7333C58.7035 50.9232 56.8698 46.3493 53.9337 42.5019C50.9977 38.6544 47.0699 35.6786 42.5715 33.8933ZM32.6782 32C30.5685 32 28.5062 31.3744 26.7521 30.2023C24.9979 29.0303 23.6308 27.3644 22.8234 25.4153C22.0161 23.4662 21.8049 21.3215 22.2164 19.2524C22.628 17.1832 23.6439 15.2826 25.1357 13.7908C26.6274 12.2991 28.5281 11.2832 30.5972 10.8716C32.6663 10.46 34.811 10.6713 36.7601 11.4786C38.7092 12.2859 40.3751 13.6531 41.5472 15.4072C42.7192 17.1614 43.3448 19.2237 43.3448 21.3333C43.3448 24.1623 42.221 26.8754 40.2206 28.8758C38.2202 30.8762 35.5071 32 32.6782 32Z" fill="#DBDBDB"/>
</g>
</svg>
