<svg width="64" height="65" viewBox="0 0 64 65" fill="none" xmlns="http://www.w3.org/2000/svg">
<g id="group (1) 1">
<path id="Vector" d="M48.1387 40.334C48.368 40.6913 48.6987 40.9687 49.08 41.15C50.554 41.8566 51.798 42.9657 52.6686 44.3492C53.5391 45.7326 54.0007 47.3341 54 48.9687V54.302C54 54.8324 54.2107 55.3411 54.5858 55.7162C54.9609 56.0913 55.4696 56.302 56 56.302C56.5304 56.302 57.0391 56.0913 57.4142 55.7162C57.7893 55.3411 58 54.8324 58 54.302V48.9687C58 45.6093 56.6655 42.3874 54.29 40.012C51.9146 37.6365 48.6927 36.302 45.3333 36.302C45.0427 36.302 44.912 36.6753 45.1307 36.8647C46.2941 37.8713 47.3071 39.0396 48.1387 40.334Z" fill="#DBDBDB"/>
<path id="Vector_2" fill-rule="evenodd" clip-rule="evenodd" d="M18.6667 40.302C16.3681 40.302 14.1637 41.2151 12.5384 42.8404C10.9131 44.4657 10 46.6701 10 48.9687V54.302C10 54.8324 9.78929 55.3411 9.41421 55.7162C9.03914 56.0913 8.53043 56.302 8 56.302C7.46957 56.302 6.96086 56.0913 6.58579 55.7162C6.21071 55.3411 6 54.8324 6 54.302V48.9687C6 45.6093 7.33452 42.3874 9.70998 40.012C12.0854 37.6365 15.3073 36.302 18.6667 36.302H34.6667C38.0261 36.302 41.2479 37.6365 43.6234 40.012C45.9988 42.3874 47.3333 45.6093 47.3333 48.9687V54.302C47.3333 54.8324 47.1226 55.3411 46.7476 55.7162C46.3725 56.0913 45.8638 56.302 45.3333 56.302C44.8029 56.302 44.2942 56.0913 43.9191 55.7162C43.544 55.3411 43.3333 54.8324 43.3333 54.302V48.9687C43.3333 46.6701 42.4202 44.4657 40.7949 42.8404C39.1696 41.2151 36.9652 40.302 34.6667 40.302H18.6667Z" fill="#DBDBDB"/>
<path id="Vector_3" d="M39.6533 26.454C39.8933 26.0033 40.2667 25.6433 40.7093 25.3873C41.7134 24.7999 42.5463 23.9599 43.125 22.9507C43.7038 21.9416 44.0083 20.7986 44.0083 19.6353C44.0083 18.472 43.7038 17.329 43.125 16.3198C42.5463 15.3107 41.7134 14.4707 40.7093 13.8833C40.2651 13.6327 39.8995 13.2633 39.6533 12.8166C38.9932 11.5622 38.1552 10.4099 37.1653 9.39529C37.0133 9.23529 37.112 8.96863 37.3333 8.96863C40.1623 8.96863 42.8754 10.0924 44.8758 12.0928C46.8762 14.0932 48 16.8063 48 19.6353C48 22.4643 46.8762 25.1774 44.8758 27.1778C42.8754 29.1782 40.1623 30.302 37.3333 30.302C37.112 30.302 37.0133 30.0353 37.1653 29.8753C38.152 28.8673 38.992 27.7153 39.6533 26.454Z" fill="#DBDBDB"/>
<path id="Vector_4" fill-rule="evenodd" clip-rule="evenodd" d="M26.6667 26.302C28.4348 26.302 30.1305 25.5996 31.3807 24.3493C32.631 23.0991 33.3333 21.4034 33.3333 19.6353C33.3333 17.8672 32.631 16.1715 31.3807 14.9213C30.1305 13.671 28.4348 12.9686 26.6667 12.9686C24.8986 12.9686 23.2029 13.671 21.9526 14.9213C20.7024 16.1715 20 17.8672 20 19.6353C20 21.4034 20.7024 23.0991 21.9526 24.3493C23.2029 25.5996 24.8986 26.302 26.6667 26.302ZM26.6667 30.302C29.4956 30.302 32.2088 29.1782 34.2091 27.1778C36.2095 25.1774 37.3333 22.4643 37.3333 19.6353C37.3333 16.8063 36.2095 14.0932 34.2091 12.0928C32.2088 10.0924 29.4956 8.96863 26.6667 8.96863C23.8377 8.96863 21.1246 10.0924 19.1242 12.0928C17.1238 14.0932 16 16.8063 16 19.6353C16 22.4643 17.1238 25.1774 19.1242 27.1778C21.1246 29.1782 23.8377 30.302 26.6667 30.302Z" fill="#DBDBDB"/>
</g>
</svg>
