<svg width="65" height="65" viewBox="0 0 65 65" fill="none" xmlns="http://www.w3.org/2000/svg">
<g id="email (1) 1">
<path id="Vector" d="M54.0982 53.7792H11.2582C9.0047 53.7765 6.84423 52.8801 5.25074 51.2866C3.65725 49.6932 2.76087 47.5327 2.75822 45.2792V19.6392C2.76087 17.3856 3.65725 15.2252 5.25074 13.6317C6.84423 12.0382 9.0047 11.1418 11.2582 11.1392H54.0982C56.3518 11.1418 58.5122 12.0382 60.1057 13.6317C61.6992 15.2252 62.5956 17.3856 62.5982 19.6392V45.2792C62.5956 47.5327 61.6992 49.6932 60.1057 51.2866C58.5122 52.8801 56.3518 53.7765 54.0982 53.7792ZM11.2582 14.1392C9.79953 14.1392 8.40059 14.7186 7.36914 15.7501C6.33769 16.7815 5.75822 18.1805 5.75822 19.6392V45.2792C5.75822 46.7378 6.33769 48.1368 7.36914 49.1682C8.40059 50.1997 9.79953 50.7792 11.2582 50.7792H54.0982C55.5569 50.7792 56.9559 50.1997 57.9873 49.1682C59.0188 48.1368 59.5982 46.7378 59.5982 45.2792V19.6392C59.5982 18.1805 59.0188 16.7815 57.9873 15.7501C56.9559 14.7186 55.5569 14.1392 54.0982 14.1392H11.2582Z" fill="#DBDBDB"/>
<path id="Vector_2" d="M32.6782 38.5391C30.8278 38.542 29.0268 37.9417 27.5482 36.8291L4.19822 19.1691C4.03325 19.0533 3.89329 18.9054 3.78673 18.7344C3.68016 18.5633 3.60917 18.3725 3.57799 18.1734C3.5468 17.9742 3.55607 17.7709 3.60524 17.5754C3.6544 17.3799 3.74246 17.1964 3.86414 17.0357C3.98583 16.875 4.13864 16.7405 4.31347 16.6402C4.4883 16.5399 4.68154 16.4759 4.88167 16.4519C5.0818 16.428 5.2847 16.4446 5.47826 16.5008C5.67181 16.557 5.85206 16.6517 6.00822 16.7791L29.3582 34.4591C30.3171 35.1749 31.4816 35.5616 32.6782 35.5616C33.8748 35.5616 35.0393 35.1749 35.9982 34.4591L59.3482 16.7791C59.5044 16.6517 59.6846 16.557 59.8782 16.5008C60.0718 16.4446 60.2747 16.428 60.4748 16.4519C60.6749 16.4759 60.8681 16.5399 61.043 16.6402C61.2178 16.7405 61.3706 16.875 61.4923 17.0357C61.614 17.1964 61.702 17.3799 61.7512 17.5754C61.8004 17.7709 61.8096 17.9742 61.7785 18.1734C61.7473 18.3725 61.6763 18.5633 61.5697 18.7344C61.4632 18.9054 61.3232 19.0533 61.1582 19.1691L37.8082 36.8291C36.3296 37.9417 34.5287 38.542 32.6782 38.5391Z" fill="#DBDBDB"/>
<path id="Vector_3" d="M4.84822 49.5991C4.544 49.5995 4.24683 49.5075 3.99614 49.3351C3.74546 49.1627 3.55311 48.9182 3.44463 48.634C3.33614 48.3497 3.31665 48.0392 3.38873 47.7437C3.46082 47.4481 3.62107 47.1815 3.84822 46.9791L22.2482 30.5691C22.5453 30.3039 22.9355 30.1675 23.3331 30.19C23.7307 30.2125 24.103 30.392 24.3682 30.6891C24.6334 30.9861 24.7698 31.3764 24.7473 31.7739C24.7248 32.1715 24.5453 32.5439 24.2482 32.8091L5.84822 49.2191C5.57497 49.4677 5.21763 49.6035 4.84822 49.5991ZM60.5082 49.5991C60.1388 49.6035 59.7815 49.4677 59.5082 49.2191L41.1082 32.8091C40.8112 32.5439 40.6317 32.1715 40.6092 31.7739C40.5867 31.3764 40.723 30.9861 40.9882 30.6891C41.2534 30.392 41.6258 30.2125 42.0234 30.19C42.4209 30.1675 42.8112 30.3039 43.1082 30.5691L61.4982 46.9791C61.7254 47.1815 61.8856 47.4481 61.9577 47.7437C62.0298 48.0392 62.0103 48.3497 61.9018 48.634C61.7933 48.9182 61.601 49.1627 61.3503 49.3351C61.0996 49.5075 60.8024 49.5995 60.4982 49.5991H60.5082Z" fill="#DBDBDB"/>
</g>
</svg>
