<svg width="250" height="250" viewBox="0 0 250 250" fill="none" xmlns="http://www.w3.org/2000/svg">
<g id="Group">
<path id="Vector" d="M125 0C141.927 0 158.061 3.377 172.811 9.48002L173.035 9.58174C188.232 15.9085 201.925 25.1648 213.379 36.6385C224.894 48.1325 234.172 61.905 240.519 77.2235C246.643 91.9521 250 108.105 250 125.01C250 141.936 246.623 158.068 240.519 172.817L240.417 173.041C234.07 188.237 224.833 201.929 213.359 213.382C201.864 224.896 188.09 234.173 172.77 240.52C158.04 246.643 141.886 250 124.98 250C108.073 250 91.919 246.623 77.1688 240.52L76.945 240.418C61.7472 234.091 48.055 224.835 36.6007 213.382L36.6211 213.341C25.1058 201.827 15.8285 188.075 9.48079 172.797C3.37728 158.048 0 141.916 0 124.99C0 108.064 3.37728 91.9318 9.48079 77.1828L9.58252 76.9591C15.9098 61.7626 25.1668 48.0714 36.6211 36.6181H36.6414C48.1567 25.1038 61.91 15.8272 77.2095 9.48002C91.9393 3.377 108.073 0 125 0ZM34.5662 192.184L35.0545 191.899C47.0581 185.206 78.3081 182.989 91.2883 173.936C92.2445 172.512 93.2617 170.437 94.2586 168.179C95.7438 164.782 97.1069 161.059 97.9614 158.536C94.34 154.264 91.2272 149.443 88.2568 144.703L78.4302 129.059C74.8494 123.688 72.9777 118.805 72.8556 114.777C72.7946 112.886 73.1201 111.177 73.8322 109.651C74.5646 108.064 75.6836 106.742 77.2095 105.725C77.9216 105.236 78.715 104.83 79.5899 104.524C78.9388 96.0412 78.715 85.3609 79.1219 76.4098C79.3254 74.2941 79.7526 72.158 80.3223 70.0423C82.8451 61.0709 89.1317 53.849 96.9238 48.8852C101.217 46.1388 105.937 44.0841 110.84 42.7008C113.973 41.8057 108.175 31.8374 111.41 31.4916C127.014 29.8844 152.262 44.1452 163.167 55.924C168.62 61.8236 172.058 69.6558 172.791 80.0106L172.18 105.521C174.906 106.355 176.656 108.084 177.348 110.872C178.141 113.984 177.287 118.338 174.642 124.298C174.601 124.4 174.54 124.522 174.479 124.624L163.269 143.075C159.159 149.849 154.968 156.664 149.536 162.015C150.045 162.747 150.553 163.459 151.042 164.171C153.259 167.426 155.497 170.681 158.366 173.59C158.468 173.692 158.549 173.794 158.61 173.895C171.509 183.009 202.901 185.227 214.945 191.94L215.434 192.225C229.411 173.468 237.671 150.216 237.671 125.031C237.671 93.9255 225.057 65.7499 204.671 45.3861C184.326 24.9817 156.148 12.3688 125.041 12.3688C93.9331 12.3688 65.7552 24.9817 45.3898 45.3658C24.9634 65.7092 12.3494 93.8848 12.3494 124.99C12.3494 150.175 20.6095 173.427 34.5662 192.184Z" fill="#767678"/>
</g>
</svg>
