<svg width="65" height="65" viewBox="0 0 65 65" fill="none" xmlns="http://www.w3.org/2000/svg">
<g id="password 1">
<path id="Vector" d="M36.9074 56.7206C37.0312 56.8444 37.1781 56.9427 37.3399 57.0097C37.5016 57.0767 37.675 57.1112 37.8501 57.1112C38.0252 57.1112 38.1985 57.0767 38.3603 57.0097C38.522 56.9427 38.669 56.8444 38.7928 56.7206L39.3449 56.1686V56.9498C39.3449 57.3034 39.4854 57.6426 39.7354 57.8926C39.9855 58.1426 40.3246 58.2831 40.6782 58.2831C41.0318 58.2831 41.371 58.1426 41.621 57.8926C41.8711 57.6426 42.0116 57.3034 42.0116 56.9498V56.1686L42.5637 56.7206C42.8152 56.9635 43.152 57.0979 43.5016 57.0948C43.8512 57.0918 44.1856 56.9516 44.4328 56.7043C44.68 56.4571 44.8202 56.1227 44.8233 55.7731C44.8263 55.4235 44.6919 55.0867 44.449 54.8353L42.5637 52.9498L44.449 51.0643C44.6919 50.8129 44.8263 50.4761 44.8233 50.1265C44.8202 49.7769 44.68 49.4424 44.4328 49.1952C44.1856 48.948 43.8512 48.8078 43.5016 48.8048C43.152 48.8017 42.8152 48.9361 42.5637 49.179L42.0116 49.731V48.9498C42.0116 48.5962 41.8711 48.257 41.621 48.007C41.371 47.7569 41.0318 47.6165 40.6782 47.6165C40.3246 47.6165 39.9855 47.7569 39.7354 48.007C39.4854 48.257 39.3449 48.5962 39.3449 48.9498V49.731L38.7928 49.179C38.5413 48.9361 38.2045 48.8017 37.8549 48.8048C37.5053 48.8078 37.1709 48.948 36.9237 49.1952C36.6765 49.4424 36.5362 49.7769 36.5332 50.1265C36.5302 50.4761 36.6645 50.8129 36.9074 51.0643L38.7928 52.9498L36.9074 54.8353C36.6575 55.0853 36.517 55.4244 36.517 55.7779C36.517 56.1315 36.6575 56.4706 36.9074 56.7206ZM48.9074 56.7206C49.0312 56.8444 49.1781 56.9427 49.3399 57.0097C49.5016 57.0767 49.675 57.1112 49.8501 57.1112C50.0252 57.1112 50.1985 57.0767 50.3603 57.0097C50.522 56.9427 50.669 56.8444 50.7928 56.7206L51.3449 56.1686V56.9498C51.3449 57.3034 51.4854 57.6426 51.7354 57.8926C51.9855 58.1426 52.3246 58.2831 52.6782 58.2831C53.0318 58.2831 53.371 58.1426 53.621 57.8926C53.8711 57.6426 54.0116 57.3034 54.0116 56.9498V56.1686L54.5637 56.7206C54.8152 56.9635 55.152 57.0979 55.5016 57.0948C55.8512 57.0918 56.1856 56.9516 56.4328 56.7043C56.68 56.4571 56.8202 56.1227 56.8233 55.7731C56.8263 55.4235 56.6919 55.0867 56.449 54.8353L54.5637 52.9498L56.449 51.0643C56.6919 50.8129 56.8263 50.4761 56.8233 50.1265C56.8202 49.7769 56.68 49.4424 56.4328 49.1952C56.1856 48.948 55.8512 48.8078 55.5016 48.8048C55.152 48.8017 54.8152 48.9361 54.5637 49.179L54.0116 49.731V48.9498C54.0116 48.5962 53.8711 48.257 53.621 48.007C53.371 47.7569 53.0318 47.6165 52.6782 47.6165C52.3246 47.6165 51.9855 47.7569 51.7354 48.007C51.4854 48.257 51.3449 48.5962 51.3449 48.9498V49.731L50.7928 49.179C50.5413 48.9361 50.2045 48.8017 49.8549 48.8048C49.5053 48.8078 49.1709 48.948 48.9237 49.1952C48.6765 49.4424 48.5362 49.7769 48.5332 50.1265C48.5302 50.4761 48.6645 50.8129 48.9074 51.0643L50.7928 52.9498L48.9074 54.8353C48.6575 55.0853 48.517 55.4244 48.517 55.7779C48.517 56.1315 48.6575 56.4706 48.9074 56.7206ZM24.9074 56.7206C25.0312 56.8444 25.1781 56.9427 25.3399 57.0097C25.5016 57.0767 25.675 57.1112 25.8501 57.1112C26.0252 57.1112 26.1985 57.0767 26.3603 57.0097C26.522 56.9427 26.669 56.8444 26.7928 56.7206L27.3449 56.1686V56.9498C27.3449 57.3034 27.4854 57.6426 27.7354 57.8926C27.9855 58.1426 28.3246 58.2831 28.6782 58.2831C29.0318 58.2831 29.371 58.1426 29.621 57.8926C29.8711 57.6426 30.0116 57.3034 30.0116 56.9498V56.1686L30.5637 56.7206C30.8152 56.9635 31.152 57.0979 31.5016 57.0948C31.8512 57.0918 32.1856 56.9516 32.4328 56.7043C32.68 56.4571 32.8202 56.1227 32.8233 55.7731C32.8263 55.4235 32.6919 55.0867 32.449 54.8353L30.5637 52.9498L32.449 51.0643C32.6919 50.8129 32.8263 50.4761 32.8233 50.1265C32.8202 49.7769 32.68 49.4424 32.4328 49.1952C32.1856 48.948 31.8512 48.8078 31.5016 48.8048C31.152 48.8017 30.8152 48.9361 30.5637 49.179L30.0116 49.731V48.9498C30.0116 48.5962 29.8711 48.257 29.621 48.007C29.371 47.7569 29.0318 47.6165 28.6782 47.6165C28.3246 47.6165 27.9855 47.7569 27.7354 48.007C27.4854 48.257 27.3449 48.5962 27.3449 48.9498V49.731L26.7928 49.179C26.5413 48.9361 26.2045 48.8017 25.8549 48.8048C25.5053 48.8078 25.1709 48.948 24.9237 49.1952C24.6765 49.4424 24.5362 49.7769 24.5332 50.1265C24.5302 50.4761 24.6645 50.8129 24.9074 51.0643L26.7928 52.9498L24.9074 54.8353C24.6575 55.0853 24.517 55.4244 24.517 55.7779C24.517 56.1315 24.6575 56.4706 24.9074 56.7206Z" fill="#DBDBDB"/>
<path id="Vector_2" d="M59.3449 43.6165H46.0116V24.9498C46.0101 23.5358 45.4477 22.1801 44.4478 21.1802C43.4479 20.1803 42.0923 19.6179 40.6782 19.6165H38.0116V12.9498C38.0087 10.4753 37.0245 8.103 35.2747 6.35328C33.525 4.60356 31.1527 3.61931 28.6782 3.61646H20.6782C18.2037 3.61931 15.8314 4.60356 14.0817 6.35328C12.332 8.103 11.3477 10.4753 11.3449 12.9498V19.6165H8.67822C7.26419 19.6179 5.9085 20.1803 4.90863 21.1802C3.90875 22.1801 3.34637 23.5358 3.34489 24.9498V51.6165C3.34627 53.0305 3.90861 54.3863 4.90851 55.3862C5.9084 56.3861 7.26416 56.9484 8.67822 56.9498H19.3449V59.6165C19.3458 60.3234 19.6271 61.0011 20.127 61.501C20.6269 62.0009 21.3046 62.2822 22.0116 62.2831H59.3449C60.0518 62.2822 60.7296 62.0009 61.2295 61.501C61.7294 61.0011 62.0106 60.3234 62.0116 59.6165V46.2831C62.0106 45.5762 61.7294 44.8984 61.2295 44.3986C60.7296 43.8987 60.0518 43.6174 59.3449 43.6165ZM14.0116 12.9498C14.0136 11.1823 14.7167 9.48783 15.9665 8.23804C17.2163 6.98825 18.9108 6.2852 20.6782 6.28312H28.6782C30.4457 6.2852 32.1402 6.98825 33.39 8.23804C34.6398 9.48783 35.3428 11.1823 35.3449 12.9498V19.6165H14.0116V12.9498ZM8.67822 54.2831C7.97127 54.2822 7.29355 54.0009 6.79366 53.501C6.29377 53.0011 6.01251 52.3234 6.01156 51.6165V24.9498C6.01237 24.2428 6.29358 23.565 6.7935 23.0651C7.29342 22.5651 7.97123 22.2839 8.67822 22.2831H40.6782C41.3852 22.2839 42.063 22.5651 42.5629 23.0651C43.0629 23.565 43.3441 24.2428 43.3449 24.9498V43.6165H22.0116C21.3046 43.6174 20.6269 43.8987 20.127 44.3986C19.6271 44.8984 19.3458 45.5762 19.3449 46.2831V54.2831H8.67822ZM59.3449 59.6165H22.0116V46.2831L59.3449 46.287V59.6165Z" fill="#DBDBDB"/>
</g>
</svg>
